<?xml version="1.0" standalone="no"?>
<!DOCTYPE svg PUBLIC "-//W3C//DTD SVG 20010904//EN"
 "http://www.w3.org/TR/2001/REC-SVG-20010904/DTD/svg10.dtd">
<svg version="1.0" xmlns="http://www.w3.org/2000/svg"
 width="481.000000pt" height="481.000000pt" viewBox="0 0 481.000000 481.000000"
 preserveAspectRatio="xMidYMid meet">
<metadata>
Created by potrace 1.11, written by Peter Selinger 2001-2013
</metadata>
<g transform="translate(0.000000,481.000000) scale(0.100000,-0.100000)"
fill="#000000" stroke="none">
<path d="M2387 3818 c-23 -45 -65 -120 -77 -138 -11 -17 -263 -450 -274 -472
-4 -7 -12 -22 -19 -33 -7 -11 -43 -74 -81 -140 -38 -66 -78 -132 -88 -147 -11
-16 -16 -28 -11 -28 4 0 3 -4 -3 -8 -5 -4 -40 -59 -76 -122 -36 -63 -113 -196
-170 -295 -58 -99 -131 -225 -163 -280 -32 -55 -83 -143 -114 -195 -30 -52
-55 -98 -53 -102 1 -5 -2 -8 -7 -8 -5 0 -11 -8 -13 -18 -5 -16 14 -17 310 -17
l315 0 48 80 c27 44 48 83 49 86 1 16 109 189 113 182 2 -4 19 -35 37 -68 18
-33 44 -80 58 -105 14 -25 38 -70 55 -100 16 -30 34 -59 39 -65 9 -10 548 -15
548 -5 0 7 -98 182 -137 242 -12 21 -23 39 -23 42 0 2 -25 45 -55 95 -30 51
-55 94 -55 96 0 2 -20 39 -45 81 -25 41 -45 77 -45 79 0 2 -25 44 -55 94 -30
50 -55 96 -55 102 0 6 19 44 42 85 l42 73 21 -32 c12 -18 46 -74 76 -125 30
-51 61 -105 70 -120 200 -337 306 -514 324 -542 12 -19 39 -64 60 -100 20 -36
39 -67 42 -70 9 -9 553 -5 553 4 0 5 -39 77 -87 160 -47 83 -97 171 -111 196
-14 25 -33 57 -43 72 -11 14 -19 29 -19 32 0 4 -11 23 -23 44 -13 20 -35 57
-49 82 -52 93 -301 526 -316 550 -9 14 -17 27 -17 30 0 3 -25 48 -56 100 -31
52 -69 120 -86 150 -16 30 -48 86 -71 124 -23 37 -42 69 -42 71 0 1 -29 53
-65 114 -36 62 -79 138 -97 169 -37 67 -77 132 -81 132 -2 0 -11 -15 -20 -32z"/>
<path d="M930 1179 l0 -207 33 -3 c17 -2 46 -3 63 -1 31 3 32 4 32 55 0 107
-9 97 87 97 l85 0 0 49 0 49 -80 -1 c-44 0 -83 3 -87 7 -3 3 -7 17 -8 31 l-1
25 103 0 102 0 -2 53 -2 52 -162 1 -163 0 0 -207z"/>
<path d="M1429 1376 c-1 -6 -2 -100 -2 -208 l-2 -196 41 -4 c22 -2 52 -1 65 2
l25 5 -1 205 0 204 -62 2 c-41 1 -63 -2 -64 -10z"/>
<path d="M1713 1381 c-5 -3 -9 -27 -9 -53 l-1 -48 58 0 c33 0 59 -4 60 -10 0
-5 1 -75 1 -154 l1 -145 31 -3 c17 -2 46 -1 64 1 l32 3 0 154 0 154 59 0 58 0
-1 53 -2 52 -172 1 c-94 0 -175 -2 -179 -5z"/>
<path d="M2209 1386 c-1 -1 -2 -25 -3 -53 -2 -51 -1 -53 23 -54 14 0 40 -2 56
-2 l30 -2 2 -148 c1 -82 3 -150 5 -152 4 -4 55 -7 96 -6 l32 1 0 155 0 155 58
0 58 0 -1 53 -1 52 -177 1 c-97 0 -178 0 -178 0z"/>
<path d="M3118 1361 c-5 -14 -34 -93 -64 -176 -30 -82 -59 -158 -64 -167 -18
-32 -11 -46 23 -49 66 -8 92 0 104 31 11 29 13 30 76 30 64 0 66 -1 72 -29 5
-25 12 -30 43 -33 20 -1 51 -1 68 2 l31 5 -76 205 -76 205 -64 1 c-59 1 -63
-1 -73 -25z m107 -241 c-4 -6 -63 -5 -70 2 -3 3 16 66 32 108 3 9 13 -9 24
-44 10 -33 16 -62 14 -66z"/>
<path d="M3550 1178 c0 -234 -10 -209 83 -210 l42 -1 2 44 c1 24 2 59 2 77 l1
32 85 0 85 0 0 49 0 49 -67 0 c-106 0 -103 -1 -103 32 l0 30 100 0 100 0 0 53
0 53 -165 0 -165 0 0 -208z"/>
</g>
</svg>
